<svg width="284" height="31" viewBox="0 0 284 31" fill="none" xmlns="http://www.w3.org/2000/svg">
<rect x="0.158447" y="0.671143" width="283.025" height="30" fill="white"/>
<path d="M5.63251 24.2024C5.59084 24.1607 5.57001 24.0774 5.57001 23.9524C5.57001 23.817 5.59084 23.7493 5.63251 23.7493C5.71584 23.7493 5.83042 23.7336 5.97626 23.7024C6.12209 23.6711 6.25751 23.6295 6.38251 23.5774C6.50751 23.5253 6.57522 23.4784 6.58563 23.4368C6.6273 23.2909 6.65334 23.1243 6.66376 22.9368C6.68459 22.7493 6.69501 22.5514 6.69501 22.343V15.8899C6.69501 15.4941 6.62209 15.2128 6.47626 15.0461C6.37209 14.9211 6.24709 14.8378 6.10126 14.7961C5.96584 14.7545 5.84084 14.7336 5.72626 14.7336C5.62209 14.7232 5.57001 14.7076 5.57001 14.6868C5.57001 14.4368 5.60126 14.3066 5.66376 14.2961C6.76792 14.1295 7.47626 13.9993 7.78876 13.9055L7.89813 13.8743C7.95022 13.8743 7.97105 13.9316 7.96063 14.0461C7.95022 14.1503 7.9398 14.2389 7.92938 14.3118L7.91376 14.4055C8.01792 14.3326 8.16376 14.2545 8.35126 14.1711C8.53876 14.0878 8.73667 14.0149 8.94501 13.9524C9.16376 13.8899 9.35126 13.8586 9.50751 13.8586C10.2158 13.8586 10.8044 14.0201 11.2731 14.343C11.7523 14.6555 12.1065 15.0566 12.3356 15.5461C12.5752 16.0253 12.695 16.5149 12.695 17.0149C12.695 17.5149 12.6013 17.9941 12.4138 18.4524C12.2263 18.9003 11.971 19.3014 11.6481 19.6555C11.3252 20.0097 10.9554 20.2909 10.5388 20.4993C10.1325 20.6972 9.71063 20.7961 9.27313 20.7961C8.95022 20.7961 8.70542 20.7701 8.53876 20.718C8.37209 20.6764 8.17938 20.6034 7.96063 20.4993C7.91897 20.5409 7.89813 20.6086 7.89813 20.7024V22.0461C7.89813 22.3482 7.90855 22.6139 7.92938 22.843C7.95022 23.0722 7.98147 23.2701 8.02313 23.4368C8.04397 23.4784 8.11688 23.5253 8.24188 23.5774C8.36688 23.6295 8.5023 23.6711 8.64813 23.7024C8.79397 23.7336 8.89813 23.7493 8.96063 23.7493C8.99188 23.7493 9.01272 23.8118 9.02313 23.9368C9.03355 24.0722 9.02834 24.1607 9.00751 24.2024L7.33563 24.1243L5.63251 24.2024ZM9.33563 20.1399C9.7523 20.1399 10.1065 20.0149 10.3981 19.7649C10.7002 19.5045 10.9346 19.1711 11.1013 18.7649C11.2679 18.3482 11.3513 17.9107 11.3513 17.4524C11.3513 16.8691 11.2419 16.3691 11.0231 15.9524C10.8148 15.5253 10.5335 15.1972 10.1794 14.968C9.82522 14.7389 9.43459 14.6243 9.00751 14.6243C8.68459 14.6243 8.41897 14.7128 8.21063 14.8899C8.0023 15.0566 7.89813 15.3014 7.89813 15.6243L7.89813 19.1399C7.89813 19.4211 8.04917 19.6607 8.35126 19.8586C8.65334 20.0461 8.98147 20.1399 9.33563 20.1399ZM13.8669 20.718C13.8252 20.6764 13.8044 20.5878 13.8044 20.4524C13.8044 20.3274 13.8252 20.2649 13.8669 20.2649C13.9502 20.2649 14.0648 20.2493 14.2106 20.218C14.3565 20.1868 14.4919 20.1451 14.6169 20.093C14.7419 20.0409 14.8096 19.9941 14.82 19.9524C14.8617 19.8066 14.8877 19.6399 14.8981 19.4524C14.919 19.2649 14.9294 19.067 14.9294 18.8586V15.9055C14.9294 15.5097 14.8565 15.2284 14.7106 15.0618C14.6065 14.9368 14.4815 14.8534 14.3356 14.8118C14.2002 14.7701 14.0752 14.7493 13.9606 14.7493C13.8565 14.7389 13.8044 14.7232 13.8044 14.7024C13.8044 14.4524 13.8356 14.3222 13.8981 14.3118C15.0335 14.1347 15.6898 14.0201 15.8669 13.968L16.1325 13.8899C16.1742 13.8795 16.2002 13.9211 16.2106 14.0149C16.221 14.1086 16.221 14.1764 16.2106 14.218L16.1169 14.9993C16.3044 14.718 16.5596 14.4576 16.8825 14.218C17.2158 13.968 17.544 13.843 17.8669 13.843C18.471 13.843 18.8773 13.9941 19.0856 14.2961C19.0856 14.6607 19.0283 14.9264 18.9138 15.093C18.7992 15.2597 18.6585 15.343 18.4919 15.343C18.3044 15.343 18.1325 15.2545 17.9763 15.0774C17.82 14.9003 17.6065 14.8118 17.3356 14.8118C17.1273 14.8118 16.9294 14.8847 16.7419 15.0305C16.5544 15.1659 16.4033 15.343 16.2888 15.5618C16.1846 15.7701 16.1325 15.9889 16.1325 16.218V18.5618C16.1325 18.8639 16.1429 19.1295 16.1638 19.3586C16.1846 19.5878 16.2158 19.7857 16.2575 19.9524C16.2783 19.9941 16.3513 20.0409 16.4763 20.093C16.6013 20.1451 16.7367 20.1868 16.8825 20.218C17.0388 20.2493 17.1481 20.2649 17.2106 20.2649C17.2419 20.2649 17.2627 20.3274 17.2731 20.4524C17.2835 20.5774 17.2783 20.6659 17.2575 20.718L15.57 20.6399L13.8669 20.718ZM23.2263 20.7805C22.6013 20.7805 22.0283 20.6243 21.5075 20.3118C20.9867 19.9993 20.57 19.5774 20.2575 19.0461C19.9554 18.5149 19.8044 17.9316 19.8044 17.2961C19.8044 16.6503 19.9502 16.067 20.2419 15.5461C20.544 15.0253 20.9502 14.6139 21.4606 14.3118C21.971 13.9993 22.5492 13.843 23.195 13.843C23.82 13.843 24.3877 13.9993 24.8981 14.3118C25.419 14.6243 25.8304 15.0409 26.1325 15.5618C26.445 16.0826 26.6013 16.6607 26.6013 17.2961C26.6013 17.9316 26.4502 18.5149 26.1481 19.0461C25.846 19.5774 25.4398 19.9993 24.9294 20.3118C24.4294 20.6243 23.8617 20.7805 23.2263 20.7805ZM23.3669 20.1711C23.7419 20.1711 24.07 20.0514 24.3513 19.8118C24.6325 19.5722 24.8513 19.2493 25.0075 18.843C25.1742 18.4368 25.2575 17.9941 25.2575 17.5149C25.2575 16.9524 25.1533 16.442 24.945 15.9836C24.7367 15.5149 24.4606 15.1451 24.1169 14.8743C23.7835 14.593 23.419 14.4524 23.0231 14.4524C22.6585 14.4524 22.3304 14.5722 22.0388 14.8118C21.7575 15.0409 21.5388 15.3534 21.3825 15.7493C21.2263 16.1347 21.1481 16.5722 21.1481 17.0618C21.1481 17.6243 21.2471 18.1451 21.445 18.6243C21.6533 19.093 21.9242 19.468 22.2575 19.7493C22.6013 20.0305 22.971 20.1711 23.3669 20.1711ZM27.6794 20.718C27.6377 20.6764 27.6169 20.5982 27.6169 20.4836C27.6169 20.3378 27.6377 20.2649 27.6794 20.2649C27.7627 20.2649 27.8721 20.2493 28.0075 20.218C28.1429 20.1868 28.2679 20.1451 28.3825 20.093C28.5075 20.0409 28.5752 19.9941 28.5856 19.9524C28.6794 19.5878 28.7263 19.1243 28.7263 18.5618L28.7419 14.968C28.7419 14.8951 28.7158 14.8586 28.6638 14.8586H27.8356C27.8044 14.8586 27.7888 14.8274 27.7888 14.7649C27.7888 14.6607 27.8148 14.5305 27.8669 14.3743C27.9294 14.2076 27.9815 14.1243 28.0231 14.1243H28.6638C28.7158 14.1243 28.7419 14.093 28.7419 14.0305V13.8274C28.7419 13.2753 28.8304 12.7597 29.0075 12.2805C29.1846 11.8014 29.419 11.3743 29.7106 10.9993C30.0127 10.6243 30.346 10.3326 30.7106 10.1243C31.0856 9.91593 31.4658 9.81177 31.8513 9.81177C32.3513 9.81177 32.8148 9.92635 33.2419 10.1555C33.8148 10.4472 34.1013 10.7649 34.1013 11.1086C34.1013 11.3274 34.0388 11.5045 33.9138 11.6399C33.7888 11.7753 33.6169 11.843 33.3981 11.843C33.096 11.843 32.8773 11.7284 32.7419 11.4993C32.5856 11.2493 32.4138 11.0097 32.2263 10.7805C32.0388 10.5409 31.7523 10.4211 31.3669 10.4211C31.0752 10.4211 30.82 10.5514 30.6013 10.8118C30.3825 11.0722 30.2158 11.4159 30.1013 11.843C29.9867 12.2701 29.9294 12.7389 29.9294 13.2493V14.0461C29.9294 14.0982 29.9554 14.1243 30.0075 14.1243H31.7419C32.294 14.1243 32.7627 14.1086 33.1481 14.0774C33.544 14.0357 33.8565 13.9784 34.0856 13.9055L34.1325 13.8899C34.2054 13.8586 34.2419 13.968 34.2419 14.218C34.221 14.4264 34.2002 14.6243 34.1794 14.8118C34.169 14.9993 34.1638 15.1764 34.1638 15.343V18.5618C34.1638 18.8639 34.1742 19.1295 34.195 19.3586C34.2158 19.5878 34.2471 19.7857 34.2888 19.9524C34.3096 19.9941 34.3825 20.0409 34.5075 20.093C34.6325 20.1451 34.7679 20.1868 34.9138 20.218C35.0596 20.2493 35.1638 20.2649 35.2263 20.2649C35.2575 20.2649 35.2783 20.3274 35.2888 20.4524C35.2992 20.5774 35.294 20.6659 35.2731 20.718L33.6013 20.6399L31.8981 20.718C31.8565 20.6764 31.8356 20.5878 31.8356 20.4524C31.8356 20.3274 31.8565 20.2649 31.8981 20.2649C31.9815 20.2649 32.096 20.2493 32.2419 20.218C32.3877 20.1868 32.5231 20.1451 32.6481 20.093C32.7731 20.0409 32.8408 19.9941 32.8513 19.9524C32.8929 19.8066 32.919 19.6399 32.9294 19.4524C32.9502 19.2649 32.9606 19.067 32.9606 18.8586V15.8274C32.9606 15.5045 32.8981 15.2597 32.7731 15.093C32.669 14.9368 32.2888 14.8586 31.6325 14.8586H30.0231C29.9606 14.8586 29.9294 14.8899 29.9294 14.9524L29.945 18.5618C29.945 18.8639 29.9554 19.1295 29.9763 19.3586C29.9971 19.5878 30.0283 19.7857 30.07 19.9524C30.0908 19.9941 30.1585 20.0409 30.2731 20.093C30.3877 20.1451 30.5127 20.1868 30.6481 20.218C30.7835 20.2493 30.8825 20.2649 30.945 20.2649C30.9763 20.2649 30.9971 20.3274 31.0075 20.4524C31.0179 20.5774 31.0127 20.6659 30.9919 20.718L29.32 20.6399L27.6794 20.718ZM36.0544 20.718C36.0127 20.6764 35.9919 20.5878 35.9919 20.4524C35.9919 20.3274 36.0127 20.2649 36.0544 20.2649C36.1377 20.2649 36.2523 20.2493 36.3981 20.218C36.544 20.1868 36.6794 20.1451 36.8044 20.093C36.9294 20.0409 36.9971 19.9941 37.0075 19.9524C37.0492 19.8066 37.0752 19.6399 37.0856 19.4524C37.1065 19.2649 37.1169 19.067 37.1169 18.8586V12.093C37.1169 11.7389 37.0856 11.4055 37.0231 11.093C36.9815 10.9264 36.7158 10.843 36.2263 10.843H36.0856C36.0231 10.843 35.9919 10.7857 35.9919 10.6711C35.9919 10.5045 36.0231 10.4211 36.0856 10.4211C36.7106 10.3482 37.1742 10.2649 37.4763 10.1711C37.7783 10.0774 37.9867 9.99406 38.1013 9.92114L38.2575 9.82739H38.2888C38.3304 9.82739 38.3721 9.85864 38.4138 9.92114C38.4554 9.97323 38.4815 10.0253 38.4919 10.0774C38.3773 10.4211 38.32 10.8743 38.32 11.4368V18.5618C38.32 18.8639 38.3304 19.1295 38.3513 19.3586C38.3721 19.5878 38.4033 19.7857 38.445 19.9524C38.4658 19.9941 38.5388 20.0409 38.6638 20.093C38.7888 20.1451 38.9242 20.1868 39.07 20.218C39.2158 20.2493 39.32 20.2649 39.3825 20.2649C39.4138 20.2649 39.4346 20.3274 39.445 20.4524C39.4554 20.5774 39.4502 20.6659 39.4294 20.718L37.7575 20.6399L36.0544 20.718ZM43.4138 20.7649C42.8408 20.7649 42.3148 20.6139 41.8356 20.3118C41.3565 20.0097 40.971 19.6086 40.6794 19.1086C40.3981 18.5982 40.2575 18.0305 40.2575 17.4055C40.2575 16.6764 40.3929 16.0461 40.6638 15.5149C40.9346 14.9836 41.3044 14.5774 41.7731 14.2961C42.2419 14.0045 42.7679 13.8586 43.3513 13.8586C43.8304 13.8586 44.2523 13.9524 44.6169 14.1399C44.9815 14.317 45.2627 14.5461 45.4606 14.8274C45.6481 15.1191 45.7835 15.4159 45.8669 15.718C45.9606 16.0097 46.0075 16.3014 46.0075 16.593C46.0075 16.8014 45.9763 16.9316 45.9138 16.9836C45.8513 17.0253 45.7315 17.0461 45.5544 17.0461H41.6169C41.5335 17.0461 41.4919 17.0722 41.4919 17.1243C41.4919 17.5618 41.5804 17.9836 41.7575 18.3899C41.9346 18.7857 42.195 19.1139 42.5388 19.3743C42.8825 19.6347 43.3044 19.7649 43.8044 19.7649C44.2419 19.7649 44.6065 19.7024 44.8981 19.5774C45.2002 19.442 45.419 19.3222 45.5544 19.218L45.6638 19.1399C45.7263 19.1399 45.7575 19.2076 45.7575 19.343C45.7575 19.4159 45.7263 19.5097 45.6638 19.6243C45.4554 19.9159 45.1481 20.1816 44.7419 20.4211C44.3356 20.6503 43.8929 20.7649 43.4138 20.7649ZM41.6169 16.3899H44.6638C44.7158 16.3899 44.7419 16.3378 44.7419 16.2336C44.7419 16.0045 44.6794 15.7545 44.5544 15.4836C44.4398 15.2024 44.2627 14.9576 44.0231 14.7493C43.7835 14.5409 43.4815 14.4368 43.1169 14.4368C42.7835 14.4368 42.4971 14.5514 42.2575 14.7805C42.0179 14.9993 41.8356 15.2545 41.7106 15.5461C41.5856 15.8274 41.5231 16.0722 41.5231 16.2805C41.5231 16.3534 41.5544 16.3899 41.6169 16.3899ZM53.8825 24.2024C53.8408 24.1607 53.82 24.0774 53.82 23.9524C53.82 23.817 53.8408 23.7493 53.8825 23.7493C53.9658 23.7493 54.0804 23.7336 54.2263 23.7024C54.3721 23.6711 54.5075 23.6295 54.6325 23.5774C54.7575 23.5253 54.8252 23.4784 54.8356 23.4368C54.8773 23.2909 54.9033 23.1243 54.9138 22.9368C54.9346 22.7493 54.945 22.5514 54.945 22.343V15.8899C54.945 15.4941 54.8721 15.2128 54.7263 15.0461C54.6221 14.9211 54.4971 14.8378 54.3513 14.7961C54.2158 14.7545 54.0908 14.7336 53.9763 14.7336C53.8721 14.7232 53.82 14.7076 53.82 14.6868C53.82 14.4368 53.8513 14.3066 53.9138 14.2961C55.0179 14.1295 55.7263 13.9993 56.0388 13.9055L56.1481 13.8743C56.2002 13.8743 56.221 13.9316 56.2106 14.0461C56.2002 14.1503 56.1898 14.2389 56.1794 14.3118L56.1638 14.4055C56.2679 14.3326 56.4138 14.2545 56.6013 14.1711C56.7888 14.0878 56.9867 14.0149 57.195 13.9524C57.4138 13.8899 57.6013 13.8586 57.7575 13.8586C58.4658 13.8586 59.0544 14.0201 59.5231 14.343C60.0023 14.6555 60.3565 15.0566 60.5856 15.5461C60.8252 16.0253 60.945 16.5149 60.945 17.0149C60.945 17.5149 60.8513 17.9941 60.6638 18.4524C60.4763 18.9003 60.221 19.3014 59.8981 19.6555C59.5752 20.0097 59.2054 20.2909 58.7888 20.4993C58.3825 20.6972 57.9606 20.7961 57.5231 20.7961C57.2002 20.7961 56.9554 20.7701 56.7888 20.718C56.6221 20.6764 56.4294 20.6034 56.2106 20.4993C56.169 20.5409 56.1481 20.6086 56.1481 20.7024V22.0461C56.1481 22.3482 56.1585 22.6139 56.1794 22.843C56.2002 23.0722 56.2315 23.2701 56.2731 23.4368C56.294 23.4784 56.3669 23.5253 56.4919 23.5774C56.6169 23.6295 56.7523 23.6711 56.8981 23.7024C57.044 23.7336 57.1481 23.7493 57.2106 23.7493C57.2419 23.7493 57.2627 23.8118 57.2731 23.9368C57.2835 24.0722 57.2783 24.1607 57.2575 24.2024L55.5856 24.1243L53.8825 24.2024ZM57.5856 20.1399C58.0023 20.1399 58.3565 20.0149 58.6481 19.7649C58.9502 19.5045 59.1846 19.1711 59.3513 18.7649C59.5179 18.3482 59.6013 17.9107 59.6013 17.4524C59.6013 16.8691 59.4919 16.3691 59.2731 15.9524C59.0648 15.5253 58.7835 15.1972 58.4294 14.968C58.0752 14.7389 57.6846 14.6243 57.2575 14.6243C56.9346 14.6243 56.669 14.7128 56.4606 14.8899C56.2523 15.0566 56.1481 15.3014 56.1481 15.6243V19.1399C56.1481 19.4211 56.2992 19.6607 56.6013 19.8586C56.9033 20.0461 57.2315 20.1399 57.5856 20.1399ZM62.1169 20.718C62.0752 20.6764 62.0544 20.5878 62.0544 20.4524C62.0544 20.3274 62.0752 20.2649 62.1169 20.2649C62.2002 20.2649 62.3148 20.2493 62.4606 20.218C62.6065 20.1868 62.7419 20.1451 62.8669 20.093C62.9919 20.0409 63.0596 19.9941 63.07 19.9524C63.1117 19.8066 63.1377 19.6399 63.1481 19.4524C63.169 19.2649 63.1794 19.067 63.1794 18.8586V15.9055C63.1794 15.5097 63.1065 15.2284 62.9606 15.0618C62.8565 14.9368 62.7315 14.8534 62.5856 14.8118C62.4502 14.7701 62.3252 14.7493 62.2106 14.7493C62.1065 14.7389 62.0544 14.7232 62.0544 14.7024C62.0544 14.4524 62.0856 14.3222 62.1481 14.3118C63.2835 14.1347 63.9398 14.0201 64.1169 13.968L64.3825 13.8899C64.4242 13.8795 64.4502 13.9211 64.4606 14.0149C64.471 14.1086 64.471 14.1764 64.4606 14.218L64.3669 14.9993C64.5544 14.718 64.8096 14.4576 65.1325 14.218C65.4658 13.968 65.794 13.843 66.1169 13.843C66.721 13.843 67.1273 13.9941 67.3356 14.2961C67.3356 14.6607 67.2783 14.9264 67.1638 15.093C67.0492 15.2597 66.9085 15.343 66.7419 15.343C66.5544 15.343 66.3825 15.2545 66.2263 15.0774C66.07 14.9003 65.8565 14.8118 65.5856 14.8118C65.3773 14.8118 65.1794 14.8847 64.9919 15.0305C64.8044 15.1659 64.6533 15.343 64.5388 15.5618C64.4346 15.7701 64.3825 15.9889 64.3825 16.218V18.5618C64.3825 18.8639 64.3929 19.1295 64.4138 19.3586C64.4346 19.5878 64.4658 19.7857 64.5075 19.9524C64.5283 19.9941 64.6013 20.0409 64.7263 20.093C64.8513 20.1451 64.9867 20.1868 65.1325 20.218C65.2888 20.2493 65.3981 20.2649 65.4606 20.2649C65.4919 20.2649 65.5127 20.3274 65.5231 20.4524C65.5335 20.5774 65.5283 20.6659 65.5075 20.718L63.82 20.6399L62.1169 20.718ZM71.4763 20.7805C70.8513 20.7805 70.2783 20.6243 69.7575 20.3118C69.2367 19.9993 68.82 19.5774 68.5075 19.0461C68.2054 18.5149 68.0544 17.9316 68.0544 17.2961C68.0544 16.6503 68.2002 16.067 68.4919 15.5461C68.794 15.0253 69.2002 14.6139 69.7106 14.3118C70.221 13.9993 70.7992 13.843 71.445 13.843C72.07 13.843 72.6377 13.9993 73.1481 14.3118C73.669 14.6243 74.0804 15.0409 74.3825 15.5618C74.695 16.0826 74.8513 16.6607 74.8513 17.2961C74.8513 17.9316 74.7002 18.5149 74.3981 19.0461C74.096 19.5774 73.6898 19.9993 73.1794 20.3118C72.6794 20.6243 72.1117 20.7805 71.4763 20.7805ZM71.6169 20.1711C71.9919 20.1711 72.32 20.0514 72.6013 19.8118C72.8825 19.5722 73.1013 19.2493 73.2575 18.843C73.4242 18.4368 73.5075 17.9941 73.5075 17.5149C73.5075 16.9524 73.4033 16.442 73.195 15.9836C72.9867 15.5149 72.7106 15.1451 72.3669 14.8743C72.0335 14.593 71.669 14.4524 71.2731 14.4524C70.9085 14.4524 70.5804 14.5722 70.2888 14.8118C70.0075 15.0409 69.7888 15.3534 69.6325 15.7493C69.4763 16.1347 69.3981 16.5722 69.3981 17.0618C69.3981 17.6243 69.4971 18.1451 69.695 18.6243C69.9033 19.093 70.1742 19.468 70.5075 19.7493C70.8513 20.0305 71.221 20.1711 71.6169 20.1711ZM75.9294 20.718C75.8877 20.6764 75.8669 20.5982 75.8669 20.4836C75.8669 20.3378 75.8877 20.2649 75.9294 20.2649C76.0127 20.2649 76.1221 20.2493 76.2575 20.218C76.3929 20.1868 76.5179 20.1451 76.6325 20.093C76.7575 20.0409 76.8252 19.9941 76.8356 19.9524C76.9294 19.5878 76.9763 19.1243 76.9763 18.5618L76.9919 14.968C76.9919 14.8951 76.9658 14.8586 76.9138 14.8586H76.0856C76.0544 14.8586 76.0388 14.8274 76.0388 14.7649C76.0388 14.6607 76.0648 14.5305 76.1169 14.3743C76.1794 14.2076 76.2315 14.1243 76.2731 14.1243H76.9138C76.9658 14.1243 76.9919 14.093 76.9919 14.0305V13.8274C76.9919 13.2753 77.0804 12.7597 77.2575 12.2805C77.4346 11.8014 77.669 11.3743 77.9606 10.9993C78.2627 10.6243 78.596 10.3326 78.9606 10.1243C79.3356 9.91593 79.7158 9.81177 80.1013 9.81177C80.6013 9.81177 81.0648 9.92635 81.4919 10.1555C82.0648 10.4472 82.3513 10.7649 82.3513 11.1086C82.3513 11.3274 82.2888 11.5045 82.1638 11.6399C82.0388 11.7753 81.8669 11.843 81.6481 11.843C81.346 11.843 81.1273 11.7284 80.9919 11.4993C80.8356 11.2493 80.6638 11.0097 80.4763 10.7805C80.2888 10.5409 80.0023 10.4211 79.6169 10.4211C79.3252 10.4211 79.07 10.5514 78.8513 10.8118C78.6325 11.0722 78.4658 11.4159 78.3513 11.843C78.2367 12.2701 78.1794 12.7389 78.1794 13.2493V14.0461C78.1794 14.0982 78.2054 14.1243 78.2575 14.1243H79.9919C80.544 14.1243 81.0127 14.1086 81.3981 14.0774C81.794 14.0357 82.1065 13.9784 82.3356 13.9055L82.3825 13.8899C82.4554 13.8586 82.4919 13.968 82.4919 14.218C82.471 14.4264 82.4502 14.6243 82.4294 14.8118C82.419 14.9993 82.4138 15.1764 82.4138 15.343V18.5618C82.4138 18.8639 82.4242 19.1295 82.445 19.3586C82.4658 19.5878 82.4971 19.7857 82.5388 19.9524C82.5596 19.9941 82.6325 20.0409 82.7575 20.093C82.8825 20.1451 83.0179 20.1868 83.1638 20.218C83.3096 20.2493 83.4138 20.2649 83.4763 20.2649C83.5075 20.2649 83.5283 20.3274 83.5388 20.4524C83.5492 20.5774 83.544 20.6659 83.5231 20.718L81.8513 20.6399L80.1481 20.718C80.1065 20.6764 80.0856 20.5878 80.0856 20.4524C80.0856 20.3274 80.1065 20.2649 80.1481 20.2649C80.2315 20.2649 80.346 20.2493 80.4919 20.218C80.6377 20.1868 80.7731 20.1451 80.8981 20.093C81.0231 20.0409 81.0908 19.9941 81.1013 19.9524C81.1429 19.8066 81.169 19.6399 81.1794 19.4524C81.2002 19.2649 81.2106 19.067 81.2106 18.8586V15.8274C81.2106 15.5045 81.1481 15.2597 81.0231 15.093C80.919 14.9368 80.5388 14.8586 79.8825 14.8586H78.2731C78.2106 14.8586 78.1794 14.8899 78.1794 14.9524L78.195 18.5618C78.195 18.8639 78.2054 19.1295 78.2263 19.3586C78.2471 19.5878 78.2783 19.7857 78.32 19.9524C78.3408 19.9941 78.4085 20.0409 78.5231 20.093C78.6377 20.1451 78.7627 20.1868 78.8981 20.218C79.0335 20.2493 79.1325 20.2649 79.195 20.2649C79.2263 20.2649 79.2471 20.3274 79.2575 20.4524C79.2679 20.5774 79.2627 20.6659 79.2419 20.718L77.57 20.6399L75.9294 20.718ZM84.3044 20.718C84.2627 20.6764 84.2419 20.5878 84.2419 20.4524C84.2419 20.3274 84.2627 20.2649 84.3044 20.2649C84.3877 20.2649 84.5023 20.2493 84.6481 20.218C84.794 20.1868 84.9294 20.1451 85.0544 20.093C85.1794 20.0409 85.2471 19.9941 85.2575 19.9524C85.2992 19.8066 85.3252 19.6399 85.3356 19.4524C85.3565 19.2649 85.3669 19.067 85.3669 18.8586V12.093C85.3669 11.7389 85.3356 11.4055 85.2731 11.093C85.2315 10.9264 84.9658 10.843 84.4763 10.843H84.3356C84.2731 10.843 84.2419 10.7857 84.2419 10.6711C84.2419 10.5045 84.2731 10.4211 84.3356 10.4211C84.9606 10.3482 85.4242 10.2649 85.7263 10.1711C86.0283 10.0774 86.2367 9.99406 86.3513 9.92114L86.5075 9.82739H86.5388C86.5804 9.82739 86.6221 9.85864 86.6638 9.92114C86.7054 9.97323 86.7315 10.0253 86.7419 10.0774C86.6273 10.4211 86.57 10.8743 86.57 11.4368V18.5618C86.57 18.8639 86.5804 19.1295 86.6013 19.3586C86.6221 19.5878 86.6533 19.7857 86.695 19.9524C86.7158 19.9941 86.7888 20.0409 86.9138 20.093C87.0388 20.1451 87.1742 20.1868 87.32 20.218C87.4658 20.2493 87.57 20.2649 87.6325 20.2649C87.6638 20.2649 87.6846 20.3274 87.695 20.4524C87.7054 20.5774 87.7002 20.6659 87.6794 20.718L86.0075 20.6399L84.3044 20.718ZM91.6638 20.7649C91.0908 20.7649 90.5648 20.6139 90.0856 20.3118C89.6065 20.0097 89.221 19.6086 88.9294 19.1086C88.6481 18.5982 88.5075 18.0305 88.5075 17.4055C88.5075 16.6764 88.6429 16.0461 88.9138 15.5149C89.1846 14.9836 89.5544 14.5774 90.0231 14.2961C90.4919 14.0045 91.0179 13.8586 91.6013 13.8586C92.0804 13.8586 92.5023 13.9524 92.8669 14.1399C93.2315 14.317 93.5127 14.5461 93.7106 14.8274C93.8981 15.1191 94.0335 15.4159 94.1169 15.718C94.2106 16.0097 94.2575 16.3014 94.2575 16.593C94.2575 16.8014 94.2263 16.9316 94.1638 16.9836C94.1013 17.0253 93.9815 17.0461 93.8044 17.0461H89.8669C89.7835 17.0461 89.7419 17.0722 89.7419 17.1243C89.7419 17.5618 89.8304 17.9836 90.0075 18.3899C90.1846 18.7857 90.445 19.1139 90.7888 19.3743C91.1325 19.6347 91.5544 19.7649 92.0544 19.7649C92.4919 19.7649 92.8565 19.7024 93.1481 19.5774C93.4502 19.442 93.669 19.3222 93.8044 19.218L93.9138 19.1399C93.9763 19.1399 94.0075 19.2076 94.0075 19.343C94.0075 19.4159 93.9763 19.5097 93.9138 19.6243C93.7054 19.9159 93.3981 20.1816 92.9919 20.4211C92.5856 20.6503 92.1429 20.7649 91.6638 20.7649ZM89.8669 16.3899H92.9138C92.9658 16.3899 92.9919 16.3378 92.9919 16.2336C92.9919 16.0045 92.9294 15.7545 92.8044 15.4836C92.6898 15.2024 92.5127 14.9576 92.2731 14.7493C92.0335 14.5409 91.7315 14.4368 91.3669 14.4368C91.0335 14.4368 90.7471 14.5514 90.5075 14.7805C90.2679 14.9993 90.0856 15.2545 89.9606 15.5461C89.8356 15.8274 89.7731 16.0722 89.7731 16.2805C89.7731 16.3534 89.8044 16.3899 89.8669 16.3899ZM102.133 24.2024C102.091 24.1607 102.07 24.0774 102.07 23.9524C102.07 23.817 102.091 23.7493 102.133 23.7493C102.216 23.7493 102.33 23.7336 102.476 23.7024C102.622 23.6711 102.758 23.6295 102.883 23.5774C103.008 23.5253 103.075 23.4784 103.086 23.4368C103.127 23.2909 103.153 23.1243 103.164 22.9368C103.185 22.7493 103.195 22.5514 103.195 22.343V15.8899C103.195 15.4941 103.122 15.2128 102.976 15.0461C102.872 14.9211 102.747 14.8378 102.601 14.7961C102.466 14.7545 102.341 14.7336 102.226 14.7336C102.122 14.7232 102.07 14.7076 102.07 14.6868C102.07 14.4368 102.101 14.3066 102.164 14.2961C103.268 14.1295 103.976 13.9993 104.289 13.9055L104.398 13.8743C104.45 13.8743 104.471 13.9316 104.461 14.0461C104.45 14.1503 104.44 14.2389 104.429 14.3118L104.414 14.4055C104.518 14.3326 104.664 14.2545 104.851 14.1711C105.039 14.0878 105.237 14.0149 105.445 13.9524C105.664 13.8899 105.851 13.8586 106.008 13.8586C106.716 13.8586 107.304 14.0201 107.773 14.343C108.252 14.6555 108.606 15.0566 108.836 15.5461C109.075 16.0253 109.195 16.5149 109.195 17.0149C109.195 17.5149 109.101 17.9941 108.914 18.4524C108.726 18.9003 108.471 19.3014 108.148 19.6555C107.825 20.0097 107.455 20.2909 107.039 20.4993C106.633 20.6972 106.211 20.7961 105.773 20.7961C105.45 20.7961 105.205 20.7701 105.039 20.718C104.872 20.6764 104.679 20.6034 104.461 20.4993C104.419 20.5409 104.398 20.6086 104.398 20.7024V22.0461C104.398 22.3482 104.409 22.6139 104.429 22.843C104.45 23.0722 104.481 23.2701 104.523 23.4368C104.544 23.4784 104.617 23.5253 104.742 23.5774C104.867 23.6295 105.002 23.6711 105.148 23.7024C105.294 23.7336 105.398 23.7493 105.461 23.7493C105.492 23.7493 105.513 23.8118 105.523 23.9368C105.534 24.0722 105.528 24.1607 105.508 24.2024L103.836 24.1243L102.133 24.2024ZM105.836 20.1399C106.252 20.1399 106.606 20.0149 106.898 19.7649C107.2 19.5045 107.435 19.1711 107.601 18.7649C107.768 18.3482 107.851 17.9107 107.851 17.4524C107.851 16.8691 107.742 16.3691 107.523 15.9524C107.315 15.5253 107.034 15.1972 106.679 14.968C106.325 14.7389 105.935 14.6243 105.508 14.6243C105.185 14.6243 104.919 14.7128 104.711 14.8899C104.502 15.0566 104.398 15.3014 104.398 15.6243V19.1399C104.398 19.4211 104.549 19.6607 104.851 19.8586C105.153 20.0461 105.481 20.1399 105.836 20.1399ZM110.367 20.718C110.325 20.6764 110.304 20.5878 110.304 20.4524C110.304 20.3274 110.325 20.2649 110.367 20.2649C110.45 20.2649 110.565 20.2493 110.711 20.218C110.856 20.1868 110.992 20.1451 111.117 20.093C111.242 20.0409 111.31 19.9941 111.32 19.9524C111.362 19.8066 111.388 19.6399 111.398 19.4524C111.419 19.2649 111.429 19.067 111.429 18.8586V15.9055C111.429 15.5097 111.356 15.2284 111.211 15.0618C111.106 14.9368 110.981 14.8534 110.836 14.8118C110.7 14.7701 110.575 14.7493 110.461 14.7493C110.356 14.7389 110.304 14.7232 110.304 14.7024C110.304 14.4524 110.336 14.3222 110.398 14.3118C111.534 14.1347 112.19 14.0201 112.367 13.968L112.633 13.8899C112.674 13.8795 112.7 13.9211 112.711 14.0149C112.721 14.1086 112.721 14.1764 112.711 14.218L112.617 14.9993C112.804 14.718 113.06 14.4576 113.383 14.218C113.716 13.968 114.044 13.843 114.367 13.843C114.971 13.843 115.377 13.9941 115.586 14.2961C115.586 14.6607 115.528 14.9264 115.414 15.093C115.299 15.2597 115.159 15.343 114.992 15.343C114.804 15.343 114.633 15.2545 114.476 15.0774C114.32 14.9003 114.106 14.8118 113.836 14.8118C113.627 14.8118 113.429 14.8847 113.242 15.0305C113.054 15.1659 112.903 15.343 112.789 15.5618C112.685 15.7701 112.633 15.9889 112.633 16.218V18.5618C112.633 18.8639 112.643 19.1295 112.664 19.3586C112.685 19.5878 112.716 19.7857 112.758 19.9524C112.778 19.9941 112.851 20.0409 112.976 20.093C113.101 20.1451 113.237 20.1868 113.383 20.218C113.539 20.2493 113.648 20.2649 113.711 20.2649C113.742 20.2649 113.763 20.3274 113.773 20.4524C113.784 20.5774 113.778 20.6659 113.758 20.718L112.07 20.6399L110.367 20.718ZM119.726 20.7805C119.101 20.7805 118.528 20.6243 118.008 20.3118C117.487 19.9993 117.07 19.5774 116.758 19.0461C116.455 18.5149 116.304 17.9316 116.304 17.2961C116.304 16.6503 116.45 16.067 116.742 15.5461C117.044 15.0253 117.45 14.6139 117.961 14.3118C118.471 13.9993 119.049 13.843 119.695 13.843C120.32 13.843 120.888 13.9993 121.398 14.3118C121.919 14.6243 122.33 15.0409 122.633 15.5618C122.945 16.0826 123.101 16.6607 123.101 17.2961C123.101 17.9316 122.95 18.5149 122.648 19.0461C122.346 19.5774 121.94 19.9993 121.429 20.3118C120.929 20.6243 120.362 20.7805 119.726 20.7805ZM119.867 20.1711C120.242 20.1711 120.57 20.0514 120.851 19.8118C121.133 19.5722 121.351 19.2493 121.508 18.843C121.674 18.4368 121.758 17.9941 121.758 17.5149C121.758 16.9524 121.653 16.442 121.445 15.9836C121.237 15.5149 120.961 15.1451 120.617 14.8743C120.284 14.593 119.919 14.4524 119.523 14.4524C119.159 14.4524 118.83 14.5722 118.539 14.8118C118.258 15.0409 118.039 15.3534 117.883 15.7493C117.726 16.1347 117.648 16.5722 117.648 17.0618C117.648 17.6243 117.747 18.1451 117.945 18.6243C118.153 19.093 118.424 19.468 118.758 19.7493C119.101 20.0305 119.471 20.1711 119.867 20.1711ZM124.179 20.718C124.138 20.6764 124.117 20.5982 124.117 20.4836C124.117 20.3378 124.138 20.2649 124.179 20.2649C124.263 20.2649 124.372 20.2493 124.508 20.218C124.643 20.1868 124.768 20.1451 124.883 20.093C125.008 20.0409 125.075 19.9941 125.086 19.9524C125.179 19.5878 125.226 19.1243 125.226 18.5618L125.242 14.968C125.242 14.8951 125.216 14.8586 125.164 14.8586H124.336C124.304 14.8586 124.289 14.8274 124.289 14.7649C124.289 14.6607 124.315 14.5305 124.367 14.3743C124.429 14.2076 124.481 14.1243 124.523 14.1243H125.164C125.216 14.1243 125.242 14.093 125.242 14.0305V13.8274C125.242 13.2753 125.33 12.7597 125.508 12.2805C125.685 11.8014 125.919 11.3743 126.211 10.9993C126.513 10.6243 126.846 10.3326 127.211 10.1243C127.586 9.91593 127.966 9.81177 128.351 9.81177C128.851 9.81177 129.315 9.92635 129.742 10.1555C130.315 10.4472 130.601 10.7649 130.601 11.1086C130.601 11.3274 130.539 11.5045 130.414 11.6399C130.289 11.7753 130.117 11.843 129.898 11.843C129.596 11.843 129.377 11.7284 129.242 11.4993C129.086 11.2493 128.914 11.0097 128.726 10.7805C128.539 10.5409 128.252 10.4211 127.867 10.4211C127.575 10.4211 127.32 10.5514 127.101 10.8118C126.883 11.0722 126.716 11.4159 126.601 11.843C126.487 12.2701 126.429 12.7389 126.429 13.2493V14.0461C126.429 14.0982 126.455 14.1243 126.508 14.1243H128.242C128.794 14.1243 129.263 14.1086 129.648 14.0774C130.044 14.0357 130.356 13.9784 130.586 13.9055L130.633 13.8899C130.705 13.8586 130.742 13.968 130.742 14.218C130.721 14.4264 130.7 14.6243 130.679 14.8118C130.669 14.9993 130.664 15.1764 130.664 15.343V18.5618C130.664 18.8639 130.674 19.1295 130.695 19.3586C130.716 19.5878 130.747 19.7857 130.789 19.9524C130.81 19.9941 130.883 20.0409 131.008 20.093C131.133 20.1451 131.268 20.1868 131.414 20.218C131.56 20.2493 131.664 20.2649 131.726 20.2649C131.758 20.2649 131.778 20.3274 131.789 20.4524C131.799 20.5774 131.794 20.6659 131.773 20.718L130.101 20.6399L128.398 20.718C128.356 20.6764 128.336 20.5878 128.336 20.4524C128.336 20.3274 128.356 20.2649 128.398 20.2649C128.481 20.2649 128.596 20.2493 128.742 20.218C128.888 20.1868 129.023 20.1451 129.148 20.093C129.273 20.0409 129.341 19.9941 129.351 19.9524C129.393 19.8066 129.419 19.6399 129.429 19.4524C129.45 19.2649 129.461 19.067 129.461 18.8586V15.8274C129.461 15.5045 129.398 15.2597 129.273 15.093C129.169 14.9368 128.789 14.8586 128.133 14.8586H126.523C126.461 14.8586 126.429 14.8899 126.429 14.9524L126.445 18.5618C126.445 18.8639 126.455 19.1295 126.476 19.3586C126.497 19.5878 126.528 19.7857 126.57 19.9524C126.591 19.9941 126.659 20.0409 126.773 20.093C126.888 20.1451 127.013 20.1868 127.148 20.218C127.284 20.2493 127.383 20.2649 127.445 20.2649C127.476 20.2649 127.497 20.3274 127.508 20.4524C127.518 20.5774 127.513 20.6659 127.492 20.718L125.82 20.6399L124.179 20.718ZM132.554 20.718C132.513 20.6764 132.492 20.5878 132.492 20.4524C132.492 20.3274 132.513 20.2649 132.554 20.2649C132.638 20.2649 132.752 20.2493 132.898 20.218C133.044 20.1868 133.179 20.1451 133.304 20.093C133.429 20.0409 133.497 19.9941 133.508 19.9524C133.549 19.8066 133.575 19.6399 133.586 19.4524C133.606 19.2649 133.617 19.067 133.617 18.8586V12.093C133.617 11.7389 133.586 11.4055 133.523 11.093C133.481 10.9264 133.216 10.843 132.726 10.843H132.586C132.523 10.843 132.492 10.7857 132.492 10.6711C132.492 10.5045 132.523 10.4211 132.586 10.4211C133.211 10.3482 133.674 10.2649 133.976 10.1711C134.278 10.0774 134.487 9.99406 134.601 9.92114L134.758 9.82739H134.789C134.83 9.82739 134.872 9.85864 134.914 9.92114C134.955 9.97323 134.981 10.0253 134.992 10.0774C134.877 10.4211 134.82 10.8743 134.82 11.4368V18.5618C134.82 18.8639 134.83 19.1295 134.851 19.3586C134.872 19.5878 134.903 19.7857 134.945 19.9524C134.966 19.9941 135.039 20.0409 135.164 20.093C135.289 20.1451 135.424 20.1868 135.57 20.218C135.716 20.2493 135.82 20.2649 135.883 20.2649C135.914 20.2649 135.935 20.3274 135.945 20.4524C135.955 20.5774 135.95 20.6659 135.929 20.718L134.258 20.6399L132.554 20.718ZM139.914 20.7649C139.341 20.7649 138.815 20.6139 138.336 20.3118C137.856 20.0097 137.471 19.6086 137.179 19.1086C136.898 18.5982 136.758 18.0305 136.758 17.4055C136.758 16.6764 136.893 16.0461 137.164 15.5149C137.435 14.9836 137.804 14.5774 138.273 14.2961C138.742 14.0045 139.268 13.8586 139.851 13.8586C140.33 13.8586 140.752 13.9524 141.117 14.1399C141.481 14.317 141.763 14.5461 141.961 14.8274C142.148 15.1191 142.284 15.4159 142.367 15.718C142.461 16.0097 142.508 16.3014 142.508 16.593C142.508 16.8014 142.476 16.9316 142.414 16.9836C142.351 17.0253 142.231 17.0461 142.054 17.0461H138.117C138.034 17.0461 137.992 17.0722 137.992 17.1243C137.992 17.5618 138.08 17.9836 138.258 18.3899C138.435 18.7857 138.695 19.1139 139.039 19.3743C139.383 19.6347 139.804 19.7649 140.304 19.7649C140.742 19.7649 141.106 19.7024 141.398 19.5774C141.7 19.442 141.919 19.3222 142.054 19.218L142.164 19.1399C142.226 19.1399 142.258 19.2076 142.258 19.343C142.258 19.4159 142.226 19.5097 142.164 19.6243C141.955 19.9159 141.648 20.1816 141.242 20.4211C140.836 20.6503 140.393 20.7649 139.914 20.7649ZM138.117 16.3899H141.164C141.216 16.3899 141.242 16.3378 141.242 16.2336C141.242 16.0045 141.179 15.7545 141.054 15.4836C140.94 15.2024 140.763 14.9576 140.523 14.7493C140.284 14.5409 139.981 14.4368 139.617 14.4368C139.284 14.4368 138.997 14.5514 138.758 14.7805C138.518 14.9993 138.336 15.2545 138.211 15.5461C138.086 15.8274 138.023 16.0722 138.023 16.2805C138.023 16.3534 138.054 16.3899 138.117 16.3899ZM146.804 24.2024C146.763 24.1607 146.742 24.0774 146.742 23.9524C146.742 23.817 146.763 23.7493 146.804 23.7493C146.888 23.7493 147.002 23.7336 147.148 23.7024C147.294 23.6711 147.429 23.6295 147.554 23.5774C147.679 23.5253 147.747 23.4784 147.758 23.4368C147.799 23.2909 147.825 23.1243 147.836 22.9368C147.856 22.7493 147.867 22.5514 147.867 22.343V15.8899C147.867 15.4941 147.794 15.2128 147.648 15.0461C147.544 14.9211 147.419 14.8378 147.273 14.7961C147.138 14.7545 147.013 14.7336 146.898 14.7336C146.794 14.7232 146.742 14.7076 146.742 14.6868C146.742 14.4368 146.773 14.3066 146.836 14.2961C147.94 14.1295 148.648 13.9993 148.961 13.9055L149.07 13.8743C149.122 13.8743 149.143 13.9316 149.133 14.0461C149.122 14.1503 149.112 14.2389 149.101 14.3118L149.086 14.4055C149.19 14.3326 149.336 14.2545 149.523 14.1711C149.711 14.0878 149.909 14.0149 150.117 13.9524C150.336 13.8899 150.523 13.8586 150.679 13.8586C151.388 13.8586 151.976 14.0201 152.445 14.343C152.924 14.6555 153.278 15.0566 153.508 15.5461C153.747 16.0253 153.867 16.5149 153.867 17.0149C153.867 17.5149 153.773 17.9941 153.586 18.4524C153.398 18.9003 153.143 19.3014 152.82 19.6555C152.497 20.0097 152.127 20.2909 151.711 20.4993C151.304 20.6972 150.883 20.7961 150.445 20.7961C150.122 20.7961 149.877 20.7701 149.711 20.718C149.544 20.6764 149.351 20.6034 149.133 20.4993C149.091 20.5409 149.07 20.6086 149.07 20.7024V22.0461C149.07 22.3482 149.08 22.6139 149.101 22.843C149.122 23.0722 149.153 23.2701 149.195 23.4368C149.216 23.4784 149.289 23.5253 149.414 23.5774C149.539 23.6295 149.674 23.6711 149.82 23.7024C149.966 23.7336 150.07 23.7493 150.133 23.7493C150.164 23.7493 150.185 23.8118 150.195 23.9368C150.205 24.0722 150.2 24.1607 150.179 24.2024L148.508 24.1243L146.804 24.2024ZM150.508 20.1399C150.924 20.1399 151.278 20.0149 151.57 19.7649C151.872 19.5045 152.106 19.1711 152.273 18.7649C152.44 18.3482 152.523 17.9107 152.523 17.4524C152.523 16.8691 152.414 16.3691 152.195 15.9524C151.987 15.5253 151.705 15.1972 151.351 14.968C150.997 14.7389 150.606 14.6243 150.179 14.6243C149.856 14.6243 149.591 14.7128 149.383 14.8899C149.174 15.0566 149.07 15.3014 149.07 15.6243V19.1399C149.07 19.4211 149.221 19.6607 149.523 19.8586C149.825 20.0461 150.153 20.1399 150.508 20.1399ZM155.039 20.718C154.997 20.6764 154.976 20.5878 154.976 20.4524C154.976 20.3274 154.997 20.2649 155.039 20.2649C155.122 20.2649 155.237 20.2493 155.383 20.218C155.528 20.1868 155.664 20.1451 155.789 20.093C155.914 20.0409 155.981 19.9941 155.992 19.9524C156.034 19.8066 156.06 19.6399 156.07 19.4524C156.091 19.2649 156.101 19.067 156.101 18.8586V15.9055C156.101 15.5097 156.028 15.2284 155.883 15.0618C155.778 14.9368 155.653 14.8534 155.508 14.8118C155.372 14.7701 155.247 14.7493 155.133 14.7493C155.028 14.7389 154.976 14.7232 154.976 14.7024C154.976 14.4524 155.008 14.3222 155.07 14.3118C156.205 14.1347 156.862 14.0201 157.039 13.968L157.304 13.8899C157.346 13.8795 157.372 13.9211 157.383 14.0149C157.393 14.1086 157.393 14.1764 157.383 14.218L157.289 14.9993C157.476 14.718 157.731 14.4576 158.054 14.218C158.388 13.968 158.716 13.843 159.039 13.843C159.643 13.843 160.049 13.9941 160.258 14.2961C160.258 14.6607 160.2 14.9264 160.086 15.093C159.971 15.2597 159.83 15.343 159.664 15.343C159.476 15.343 159.304 15.2545 159.148 15.0774C158.992 14.9003 158.778 14.8118 158.508 14.8118C158.299 14.8118 158.101 14.8847 157.914 15.0305C157.726 15.1659 157.575 15.343 157.461 15.5618C157.356 15.7701 157.304 15.9889 157.304 16.218V18.5618C157.304 18.8639 157.315 19.1295 157.336 19.3586C157.356 19.5878 157.388 19.7857 157.429 19.9524C157.45 19.9941 157.523 20.0409 157.648 20.093C157.773 20.1451 157.909 20.1868 158.054 20.218C158.211 20.2493 158.32 20.2649 158.383 20.2649C158.414 20.2649 158.435 20.3274 158.445 20.4524C158.455 20.5774 158.45 20.6659 158.429 20.718L156.742 20.6399L155.039 20.718ZM164.398 20.7805C163.773 20.7805 163.2 20.6243 162.679 20.3118C162.159 19.9993 161.742 19.5774 161.429 19.0461C161.127 18.5149 160.976 17.9316 160.976 17.2961C160.976 16.6503 161.122 16.067 161.414 15.5461C161.716 15.0253 162.122 14.6139 162.633 14.3118C163.143 13.9993 163.721 13.843 164.367 13.843C164.992 13.843 165.56 13.9993 166.07 14.3118C166.591 14.6243 167.002 15.0409 167.304 15.5618C167.617 16.0826 167.773 16.6607 167.773 17.2961C167.773 17.9316 167.622 18.5149 167.32 19.0461C167.018 19.5774 166.612 19.9993 166.101 20.3118C165.601 20.6243 165.034 20.7805 164.398 20.7805ZM164.539 20.1711C164.914 20.1711 165.242 20.0514 165.523 19.8118C165.804 19.5722 166.023 19.2493 166.179 18.843C166.346 18.4368 166.429 17.9941 166.429 17.5149C166.429 16.9524 166.325 16.442 166.117 15.9836C165.909 15.5149 165.633 15.1451 165.289 14.8743C164.955 14.593 164.591 14.4524 164.195 14.4524C163.83 14.4524 163.502 14.5722 163.211 14.8118C162.929 15.0409 162.711 15.3534 162.554 15.7493C162.398 16.1347 162.32 16.5722 162.32 17.0618C162.32 17.6243 162.419 18.1451 162.617 18.6243C162.825 19.093 163.096 19.468 163.429 19.7493C163.773 20.0305 164.143 20.1711 164.539 20.1711ZM168.851 20.718C168.81 20.6764 168.789 20.5982 168.789 20.4836C168.789 20.3378 168.81 20.2649 168.851 20.2649C168.935 20.2649 169.044 20.2493 169.179 20.218C169.315 20.1868 169.44 20.1451 169.554 20.093C169.679 20.0409 169.747 19.9941 169.758 19.9524C169.851 19.5878 169.898 19.1243 169.898 18.5618L169.914 14.968C169.914 14.8951 169.888 14.8586 169.836 14.8586H169.008C168.976 14.8586 168.961 14.8274 168.961 14.7649C168.961 14.6607 168.987 14.5305 169.039 14.3743C169.101 14.2076 169.153 14.1243 169.195 14.1243H169.836C169.888 14.1243 169.914 14.093 169.914 14.0305V13.8274C169.914 13.2753 170.002 12.7597 170.179 12.2805C170.356 11.8014 170.591 11.3743 170.883 10.9993C171.185 10.6243 171.518 10.3326 171.883 10.1243C172.258 9.91593 172.638 9.81177 173.023 9.81177C173.523 9.81177 173.987 9.92635 174.414 10.1555C174.987 10.4472 175.273 10.7649 175.273 11.1086C175.273 11.3274 175.211 11.5045 175.086 11.6399C174.961 11.7753 174.789 11.843 174.57 11.843C174.268 11.843 174.049 11.7284 173.914 11.4993C173.758 11.2493 173.586 11.0097 173.398 10.7805C173.211 10.5409 172.924 10.4211 172.539 10.4211C172.247 10.4211 171.992 10.5514 171.773 10.8118C171.554 11.0722 171.388 11.4159 171.273 11.843C171.159 12.2701 171.101 12.7389 171.101 13.2493V14.0461C171.101 14.0982 171.127 14.1243 171.179 14.1243H172.914C173.466 14.1243 173.935 14.1086 174.32 14.0774C174.716 14.0357 175.028 13.9784 175.258 13.9055L175.304 13.8899C175.377 13.8586 175.414 13.968 175.414 14.218C175.393 14.4264 175.372 14.6243 175.351 14.8118C175.341 14.9993 175.336 15.1764 175.336 15.343V18.5618C175.336 18.8639 175.346 19.1295 175.367 19.3586C175.388 19.5878 175.419 19.7857 175.461 19.9524C175.481 19.9941 175.554 20.0409 175.679 20.093C175.804 20.1451 175.94 20.1868 176.086 20.218C176.231 20.2493 176.336 20.2649 176.398 20.2649C176.429 20.2649 176.45 20.3274 176.461 20.4524C176.471 20.5774 176.466 20.6659 176.445 20.718L174.773 20.6399L173.07 20.718C173.028 20.6764 173.008 20.5878 173.008 20.4524C173.008 20.3274 173.028 20.2649 173.07 20.2649C173.153 20.2649 173.268 20.2493 173.414 20.218C173.56 20.1868 173.695 20.1451 173.82 20.093C173.945 20.0409 174.013 19.9941 174.023 19.9524C174.065 19.8066 174.091 19.6399 174.101 19.4524C174.122 19.2649 174.133 19.067 174.133 18.8586V15.8274C174.133 15.5045 174.07 15.2597 173.945 15.093C173.841 14.9368 173.461 14.8586 172.804 14.8586H171.195C171.133 14.8586 171.101 14.8899 171.101 14.9524L171.117 18.5618C171.117 18.8639 171.127 19.1295 171.148 19.3586C171.169 19.5878 171.2 19.7857 171.242 19.9524C171.263 19.9941 171.33 20.0409 171.445 20.093C171.56 20.1451 171.685 20.1868 171.82 20.218C171.955 20.2493 172.054 20.2649 172.117 20.2649C172.148 20.2649 172.169 20.3274 172.179 20.4524C172.19 20.5774 172.185 20.6659 172.164 20.718L170.492 20.6399L168.851 20.718ZM177.226 20.718C177.185 20.6764 177.164 20.5878 177.164 20.4524C177.164 20.3274 177.185 20.2649 177.226 20.2649C177.31 20.2649 177.424 20.2493 177.57 20.218C177.716 20.1868 177.851 20.1451 177.976 20.093C178.101 20.0409 178.169 19.9941 178.179 19.9524C178.221 19.8066 178.247 19.6399 178.258 19.4524C178.278 19.2649 178.289 19.067 178.289 18.8586V12.093C178.289 11.7389 178.258 11.4055 178.195 11.093C178.153 10.9264 177.888 10.843 177.398 10.843H177.258C177.195 10.843 177.164 10.7857 177.164 10.6711C177.164 10.5045 177.195 10.4211 177.258 10.4211C177.883 10.3482 178.346 10.2649 178.648 10.1711C178.95 10.0774 179.159 9.99406 179.273 9.92114L179.429 9.82739H179.461C179.502 9.82739 179.544 9.85864 179.586 9.92114C179.627 9.97323 179.653 10.0253 179.664 10.0774C179.549 10.4211 179.492 10.8743 179.492 11.4368V18.5618C179.492 18.8639 179.502 19.1295 179.523 19.3586C179.544 19.5878 179.575 19.7857 179.617 19.9524C179.638 19.9941 179.711 20.0409 179.836 20.093C179.961 20.1451 180.096 20.1868 180.242 20.218C180.388 20.2493 180.492 20.2649 180.554 20.2649C180.586 20.2649 180.606 20.3274 180.617 20.4524C180.627 20.5774 180.622 20.6659 180.601 20.718L178.929 20.6399L177.226 20.718ZM184.586 20.7649C184.013 20.7649 183.487 20.6139 183.008 20.3118C182.528 20.0097 182.143 19.6086 181.851 19.1086C181.57 18.5982 181.429 18.0305 181.429 17.4055C181.429 16.6764 181.565 16.0461 181.836 15.5149C182.106 14.9836 182.476 14.5774 182.945 14.2961C183.414 14.0045 183.94 13.8586 184.523 13.8586C185.002 13.8586 185.424 13.9524 185.789 14.1399C186.153 14.317 186.435 14.5461 186.633 14.8274C186.82 15.1191 186.955 15.4159 187.039 15.718C187.133 16.0097 187.179 16.3014 187.179 16.593C187.179 16.8014 187.148 16.9316 187.086 16.9836C187.023 17.0253 186.903 17.0461 186.726 17.0461H182.789C182.705 17.0461 182.664 17.0722 182.664 17.1243C182.664 17.5618 182.752 17.9836 182.929 18.3899C183.106 18.7857 183.367 19.1139 183.711 19.3743C184.054 19.6347 184.476 19.7649 184.976 19.7649C185.414 19.7649 185.778 19.7024 186.07 19.5774C186.372 19.442 186.591 19.3222 186.726 19.218L186.836 19.1399C186.898 19.1399 186.929 19.2076 186.929 19.343C186.929 19.4159 186.898 19.5097 186.836 19.6243C186.627 19.9159 186.32 20.1816 185.914 20.4211C185.508 20.6503 185.065 20.7649 184.586 20.7649ZM182.789 16.3899H185.836C185.888 16.3899 185.914 16.3378 185.914 16.2336C185.914 16.0045 185.851 15.7545 185.726 15.4836C185.612 15.2024 185.435 14.9576 185.195 14.7493C184.955 14.5409 184.653 14.4368 184.289 14.4368C183.955 14.4368 183.669 14.5514 183.429 14.7805C183.19 14.9993 183.008 15.2545 182.883 15.5461C182.758 15.8274 182.695 16.0722 182.695 16.2805C182.695 16.3534 182.726 16.3899 182.789 16.3899ZM191.476 24.2024C191.435 24.1607 191.414 24.0774 191.414 23.9524C191.414 23.817 191.435 23.7493 191.476 23.7493C191.56 23.7493 191.674 23.7336 191.82 23.7024C191.966 23.6711 192.101 23.6295 192.226 23.5774C192.351 23.5253 192.419 23.4784 192.429 23.4368C192.471 23.2909 192.497 23.1243 192.508 22.9368C192.528 22.7493 192.539 22.5514 192.539 22.343V15.8899C192.539 15.4941 192.466 15.2128 192.32 15.0461C192.216 14.9211 192.091 14.8378 191.945 14.7961C191.81 14.7545 191.685 14.7336 191.57 14.7336C191.466 14.7232 191.414 14.7076 191.414 14.6868C191.414 14.4368 191.445 14.3066 191.508 14.2961C192.612 14.1295 193.32 13.9993 193.633 13.9055L193.742 13.8743C193.794 13.8743 193.815 13.9316 193.804 14.0461C193.794 14.1503 193.784 14.2389 193.773 14.3118L193.758 14.4055C193.862 14.3326 194.008 14.2545 194.195 14.1711C194.383 14.0878 194.58 14.0149 194.789 13.9524C195.008 13.8899 195.195 13.8586 195.351 13.8586C196.06 13.8586 196.648 14.0201 197.117 14.343C197.596 14.6555 197.95 15.0566 198.179 15.5461C198.419 16.0253 198.539 16.5149 198.539 17.0149C198.539 17.5149 198.445 17.9941 198.258 18.4524C198.07 18.9003 197.815 19.3014 197.492 19.6555C197.169 20.0097 196.799 20.2909 196.383 20.4993C195.976 20.6972 195.554 20.7961 195.117 20.7961C194.794 20.7961 194.549 20.7701 194.383 20.718C194.216 20.6764 194.023 20.6034 193.804 20.4993C193.763 20.5409 193.742 20.6086 193.742 20.7024V22.0461C193.742 22.3482 193.752 22.6139 193.773 22.843C193.794 23.0722 193.825 23.2701 193.867 23.4368C193.888 23.4784 193.961 23.5253 194.086 23.5774C194.211 23.6295 194.346 23.6711 194.492 23.7024C194.638 23.7336 194.742 23.7493 194.804 23.7493C194.836 23.7493 194.856 23.8118 194.867 23.9368C194.877 24.0722 194.872 24.1607 194.851 24.2024L193.179 24.1243L191.476 24.2024ZM195.179 20.1399C195.596 20.1399 195.95 20.0149 196.242 19.7649C196.544 19.5045 196.778 19.1711 196.945 18.7649C197.112 18.3482 197.195 17.9107 197.195 17.4524C197.195 16.8691 197.086 16.3691 196.867 15.9524C196.659 15.5253 196.377 15.1972 196.023 14.968C195.669 14.7389 195.278 14.6243 194.851 14.6243C194.528 14.6243 194.263 14.7128 194.054 14.8899C193.846 15.0566 193.742 15.3014 193.742 15.6243V19.1399C193.742 19.4211 193.893 19.6607 194.195 19.8586C194.497 20.0461 194.825 20.1399 195.179 20.1399ZM199.711 20.718C199.669 20.6764 199.648 20.5878 199.648 20.4524C199.648 20.3274 199.669 20.2649 199.711 20.2649C199.794 20.2649 199.909 20.2493 200.054 20.218C200.2 20.1868 200.336 20.1451 200.461 20.093C200.586 20.0409 200.653 19.9941 200.664 19.9524C200.705 19.8066 200.731 19.6399 200.742 19.4524C200.763 19.2649 200.773 19.067 200.773 18.8586V15.9055C200.773 15.5097 200.7 15.2284 200.554 15.0618C200.45 14.9368 200.325 14.8534 200.179 14.8118C200.044 14.7701 199.919 14.7493 199.804 14.7493C199.7 14.7389 199.648 14.7232 199.648 14.7024C199.648 14.4524 199.679 14.3222 199.742 14.3118C200.877 14.1347 201.534 14.0201 201.711 13.968L201.976 13.8899C202.018 13.8795 202.044 13.9211 202.054 14.0149C202.065 14.1086 202.065 14.1764 202.054 14.218L201.961 14.9993C202.148 14.718 202.403 14.4576 202.726 14.218C203.06 13.968 203.388 13.843 203.711 13.843C204.315 13.843 204.721 13.9941 204.929 14.2961C204.929 14.6607 204.872 14.9264 204.758 15.093C204.643 15.2597 204.502 15.343 204.336 15.343C204.148 15.343 203.976 15.2545 203.82 15.0774C203.664 14.9003 203.45 14.8118 203.179 14.8118C202.971 14.8118 202.773 14.8847 202.586 15.0305C202.398 15.1659 202.247 15.343 202.133 15.5618C202.028 15.7701 201.976 15.9889 201.976 16.218V18.5618C201.976 18.8639 201.987 19.1295 202.008 19.3586C202.028 19.5878 202.06 19.7857 202.101 19.9524C202.122 19.9941 202.195 20.0409 202.32 20.093C202.445 20.1451 202.58 20.1868 202.726 20.218C202.883 20.2493 202.992 20.2649 203.054 20.2649C203.086 20.2649 203.106 20.3274 203.117 20.4524C203.127 20.5774 203.122 20.6659 203.101 20.718L201.414 20.6399L199.711 20.718ZM209.07 20.7805C208.445 20.7805 207.872 20.6243 207.351 20.3118C206.83 19.9993 206.414 19.5774 206.101 19.0461C205.799 18.5149 205.648 17.9316 205.648 17.2961C205.648 16.6503 205.794 16.067 206.086 15.5461C206.388 15.0253 206.794 14.6139 207.304 14.3118C207.815 13.9993 208.393 13.843 209.039 13.843C209.664 13.843 210.231 13.9993 210.742 14.3118C211.263 14.6243 211.674 15.0409 211.976 15.5618C212.289 16.0826 212.445 16.6607 212.445 17.2961C212.445 17.9316 212.294 18.5149 211.992 19.0461C211.69 19.5774 211.284 19.9993 210.773 20.3118C210.273 20.6243 209.705 20.7805 209.07 20.7805ZM209.211 20.1711C209.586 20.1711 209.914 20.0514 210.195 19.8118C210.476 19.5722 210.695 19.2493 210.851 18.843C211.018 18.4368 211.101 17.9941 211.101 17.5149C211.101 16.9524 210.997 16.442 210.789 15.9836C210.58 15.5149 210.304 15.1451 209.961 14.8743C209.627 14.593 209.263 14.4524 208.867 14.4524C208.502 14.4524 208.174 14.5722 207.883 14.8118C207.601 15.0409 207.383 15.3534 207.226 15.7493C207.07 16.1347 206.992 16.5722 206.992 17.0618C206.992 17.6243 207.091 18.1451 207.289 18.6243C207.497 19.093 207.768 19.468 208.101 19.7493C208.445 20.0305 208.815 20.1711 209.211 20.1711ZM213.523 20.718C213.481 20.6764 213.461 20.5982 213.461 20.4836C213.461 20.3378 213.481 20.2649 213.523 20.2649C213.606 20.2649 213.716 20.2493 213.851 20.218C213.987 20.1868 214.112 20.1451 214.226 20.093C214.351 20.0409 214.419 19.9941 214.429 19.9524C214.523 19.5878 214.57 19.1243 214.57 18.5618L214.586 14.968C214.586 14.8951 214.56 14.8586 214.508 14.8586H213.679C213.648 14.8586 213.633 14.8274 213.633 14.7649C213.633 14.6607 213.659 14.5305 213.711 14.3743C213.773 14.2076 213.825 14.1243 213.867 14.1243H214.508C214.56 14.1243 214.586 14.093 214.586 14.0305V13.8274C214.586 13.2753 214.674 12.7597 214.851 12.2805C215.028 11.8014 215.263 11.3743 215.554 10.9993C215.856 10.6243 216.19 10.3326 216.554 10.1243C216.929 9.91593 217.31 9.81177 217.695 9.81177C218.195 9.81177 218.659 9.92635 219.086 10.1555C219.659 10.4472 219.945 10.7649 219.945 11.1086C219.945 11.3274 219.883 11.5045 219.758 11.6399C219.633 11.7753 219.461 11.843 219.242 11.843C218.94 11.843 218.721 11.7284 218.586 11.4993C218.429 11.2493 218.258 11.0097 218.07 10.7805C217.883 10.5409 217.596 10.4211 217.211 10.4211C216.919 10.4211 216.664 10.5514 216.445 10.8118C216.226 11.0722 216.06 11.4159 215.945 11.843C215.83 12.2701 215.773 12.7389 215.773 13.2493V14.0461C215.773 14.0982 215.799 14.1243 215.851 14.1243H217.586C218.138 14.1243 218.606 14.1086 218.992 14.0774C219.388 14.0357 219.7 13.9784 219.929 13.9055L219.976 13.8899C220.049 13.8586 220.086 13.968 220.086 14.218C220.065 14.4264 220.044 14.6243 220.023 14.8118C220.013 14.9993 220.008 15.1764 220.008 15.343V18.5618C220.008 18.8639 220.018 19.1295 220.039 19.3586C220.06 19.5878 220.091 19.7857 220.133 19.9524C220.153 19.9941 220.226 20.0409 220.351 20.093C220.476 20.1451 220.612 20.1868 220.758 20.218C220.903 20.2493 221.008 20.2649 221.07 20.2649C221.101 20.2649 221.122 20.3274 221.133 20.4524C221.143 20.5774 221.138 20.6659 221.117 20.718L219.445 20.6399L217.742 20.718C217.7 20.6764 217.679 20.5878 217.679 20.4524C217.679 20.3274 217.7 20.2649 217.742 20.2649C217.825 20.2649 217.94 20.2493 218.086 20.218C218.231 20.1868 218.367 20.1451 218.492 20.093C218.617 20.0409 218.685 19.9941 218.695 19.9524C218.737 19.8066 218.763 19.6399 218.773 19.4524C218.794 19.2649 218.804 19.067 218.804 18.8586V15.8274C218.804 15.5045 218.742 15.2597 218.617 15.093C218.513 14.9368 218.133 14.8586 217.476 14.8586H215.867C215.804 14.8586 215.773 14.8899 215.773 14.9524L215.789 18.5618C215.789 18.8639 215.799 19.1295 215.82 19.3586C215.841 19.5878 215.872 19.7857 215.914 19.9524C215.935 19.9941 216.002 20.0409 216.117 20.093C216.231 20.1451 216.356 20.1868 216.492 20.218C216.627 20.2493 216.726 20.2649 216.789 20.2649C216.82 20.2649 216.841 20.3274 216.851 20.4524C216.862 20.5774 216.856 20.6659 216.836 20.718L215.164 20.6399L213.523 20.718ZM221.898 20.718C221.856 20.6764 221.836 20.5878 221.836 20.4524C221.836 20.3274 221.856 20.2649 221.898 20.2649C221.981 20.2649 222.096 20.2493 222.242 20.218C222.388 20.1868 222.523 20.1451 222.648 20.093C222.773 20.0409 222.841 19.9941 222.851 19.9524C222.893 19.8066 222.919 19.6399 222.929 19.4524C222.95 19.2649 222.961 19.067 222.961 18.8586V12.093C222.961 11.7389 222.929 11.4055 222.867 11.093C222.825 10.9264 222.56 10.843 222.07 10.843H221.929C221.867 10.843 221.836 10.7857 221.836 10.6711C221.836 10.5045 221.867 10.4211 221.929 10.4211C222.554 10.3482 223.018 10.2649 223.32 10.1711C223.622 10.0774 223.83 9.99406 223.945 9.92114L224.101 9.82739H224.133C224.174 9.82739 224.216 9.85864 224.258 9.92114C224.299 9.97323 224.325 10.0253 224.336 10.0774C224.221 10.4211 224.164 10.8743 224.164 11.4368V18.5618C224.164 18.8639 224.174 19.1295 224.195 19.3586C224.216 19.5878 224.247 19.7857 224.289 19.9524C224.31 19.9941 224.383 20.0409 224.508 20.093C224.633 20.1451 224.768 20.1868 224.914 20.218C225.06 20.2493 225.164 20.2649 225.226 20.2649C225.258 20.2649 225.278 20.3274 225.289 20.4524C225.299 20.5774 225.294 20.6659 225.273 20.718L223.601 20.6399L221.898 20.718ZM229.258 20.7649C228.685 20.7649 228.159 20.6139 227.679 20.3118C227.2 20.0097 226.815 19.6086 226.523 19.1086C226.242 18.5982 226.101 18.0305 226.101 17.4055C226.101 16.6764 226.237 16.0461 226.508 15.5149C226.778 14.9836 227.148 14.5774 227.617 14.2961C228.086 14.0045 228.612 13.8586 229.195 13.8586C229.674 13.8586 230.096 13.9524 230.461 14.1399C230.825 14.317 231.106 14.5461 231.304 14.8274C231.492 15.1191 231.627 15.4159 231.711 15.718C231.804 16.0097 231.851 16.3014 231.851 16.593C231.851 16.8014 231.82 16.9316 231.758 16.9836C231.695 17.0253 231.575 17.0461 231.398 17.0461H227.461C227.377 17.0461 227.336 17.0722 227.336 17.1243C227.336 17.5618 227.424 17.9836 227.601 18.3899C227.778 18.7857 228.039 19.1139 228.383 19.3743C228.726 19.6347 229.148 19.7649 229.648 19.7649C230.086 19.7649 230.45 19.7024 230.742 19.5774C231.044 19.442 231.263 19.3222 231.398 19.218L231.508 19.1399C231.57 19.1399 231.601 19.2076 231.601 19.343C231.601 19.4159 231.57 19.5097 231.508 19.6243C231.299 19.9159 230.992 20.1816 230.586 20.4211C230.179 20.6503 229.737 20.7649 229.258 20.7649ZM227.461 16.3899H230.508C230.56 16.3899 230.586 16.3378 230.586 16.2336C230.586 16.0045 230.523 15.7545 230.398 15.4836C230.284 15.2024 230.106 14.9576 229.867 14.7493C229.627 14.5409 229.325 14.4368 228.961 14.4368C228.627 14.4368 228.341 14.5514 228.101 14.7805C227.862 14.9993 227.679 15.2545 227.554 15.5461C227.429 15.8274 227.367 16.0722 227.367 16.2805C227.367 16.3534 227.398 16.3899 227.461 16.3899ZM236.148 24.2024C236.106 24.1607 236.086 24.0774 236.086 23.9524C236.086 23.817 236.106 23.7493 236.148 23.7493C236.231 23.7493 236.346 23.7336 236.492 23.7024C236.638 23.6711 236.773 23.6295 236.898 23.5774C237.023 23.5253 237.091 23.4784 237.101 23.4368C237.143 23.2909 237.169 23.1243 237.179 22.9368C237.2 22.7493 237.211 22.5514 237.211 22.343V15.8899C237.211 15.4941 237.138 15.2128 236.992 15.0461C236.888 14.9211 236.763 14.8378 236.617 14.7961C236.481 14.7545 236.356 14.7336 236.242 14.7336C236.138 14.7232 236.086 14.7076 236.086 14.6868C236.086 14.4368 236.117 14.3066 236.179 14.2961C237.284 14.1295 237.992 13.9993 238.304 13.9055L238.414 13.8743C238.466 13.8743 238.487 13.9316 238.476 14.0461C238.466 14.1503 238.455 14.2389 238.445 14.3118L238.429 14.4055C238.534 14.3326 238.679 14.2545 238.867 14.1711C239.054 14.0878 239.252 14.0149 239.461 13.9524C239.679 13.8899 239.867 13.8586 240.023 13.8586C240.731 13.8586 241.32 14.0201 241.789 14.343C242.268 14.6555 242.622 15.0566 242.851 15.5461C243.091 16.0253 243.211 16.5149 243.211 17.0149C243.211 17.5149 243.117 17.9941 242.929 18.4524C242.742 18.9003 242.487 19.3014 242.164 19.6555C241.841 20.0097 241.471 20.2909 241.054 20.4993C240.648 20.6972 240.226 20.7961 239.789 20.7961C239.466 20.7961 239.221 20.7701 239.054 20.718C238.888 20.6764 238.695 20.6034 238.476 20.4993C238.435 20.5409 238.414 20.6086 238.414 20.7024V22.0461C238.414 22.3482 238.424 22.6139 238.445 22.843C238.466 23.0722 238.497 23.2701 238.539 23.4368C238.56 23.4784 238.633 23.5253 238.758 23.5774C238.883 23.6295 239.018 23.6711 239.164 23.7024C239.31 23.7336 239.414 23.7493 239.476 23.7493C239.508 23.7493 239.528 23.8118 239.539 23.9368C239.549 24.0722 239.544 24.1607 239.523 24.2024L237.851 24.1243L236.148 24.2024ZM239.851 20.1399C240.268 20.1399 240.622 20.0149 240.914 19.7649C241.216 19.5045 241.45 19.1711 241.617 18.7649C241.784 18.3482 241.867 17.9107 241.867 17.4524C241.867 16.8691 241.758 16.3691 241.539 15.9524C241.33 15.5253 241.049 15.1972 240.695 14.968C240.341 14.7389 239.95 14.6243 239.523 14.6243C239.2 14.6243 238.935 14.7128 238.726 14.8899C238.518 15.0566 238.414 15.3014 238.414 15.6243V19.1399C238.414 19.4211 238.565 19.6607 238.867 19.8586C239.169 20.0461 239.497 20.1399 239.851 20.1399ZM244.383 20.718C244.341 20.6764 244.32 20.5878 244.32 20.4524C244.32 20.3274 244.341 20.2649 244.383 20.2649C244.466 20.2649 244.58 20.2493 244.726 20.218C244.872 20.1868 245.008 20.1451 245.133 20.093C245.258 20.0409 245.325 19.9941 245.336 19.9524C245.377 19.8066 245.403 19.6399 245.414 19.4524C245.435 19.2649 245.445 19.067 245.445 18.8586V15.9055C245.445 15.5097 245.372 15.2284 245.226 15.0618C245.122 14.9368 244.997 14.8534 244.851 14.8118C244.716 14.7701 244.591 14.7493 244.476 14.7493C244.372 14.7389 244.32 14.7232 244.32 14.7024C244.32 14.4524 244.351 14.3222 244.414 14.3118C245.549 14.1347 246.205 14.0201 246.383 13.968L246.648 13.8899C246.69 13.8795 246.716 13.9211 246.726 14.0149C246.737 14.1086 246.737 14.1764 246.726 14.218L246.633 14.9993C246.82 14.718 247.075 14.4576 247.398 14.218C247.731 13.968 248.06 13.843 248.383 13.843C248.987 13.843 249.393 13.9941 249.601 14.2961C249.601 14.6607 249.544 14.9264 249.429 15.093C249.315 15.2597 249.174 15.343 249.008 15.343C248.82 15.343 248.648 15.2545 248.492 15.0774C248.336 14.9003 248.122 14.8118 247.851 14.8118C247.643 14.8118 247.445 14.8847 247.258 15.0305C247.07 15.1659 246.919 15.343 246.804 15.5618C246.7 15.7701 246.648 15.9889 246.648 16.218V18.5618C246.648 18.8639 246.659 19.1295 246.679 19.3586C246.7 19.5878 246.731 19.7857 246.773 19.9524C246.794 19.9941 246.867 20.0409 246.992 20.093C247.117 20.1451 247.252 20.1868 247.398 20.218C247.554 20.2493 247.664 20.2649 247.726 20.2649C247.758 20.2649 247.778 20.3274 247.789 20.4524C247.799 20.5774 247.794 20.6659 247.773 20.718L246.086 20.6399L244.383 20.718ZM253.742 20.7805C253.117 20.7805 252.544 20.6243 252.023 20.3118C251.502 19.9993 251.086 19.5774 250.773 19.0461C250.471 18.5149 250.32 17.9316 250.32 17.2961C250.32 16.6503 250.466 16.067 250.758 15.5461C251.06 15.0253 251.466 14.6139 251.976 14.3118C252.487 13.9993 253.065 13.843 253.711 13.843C254.336 13.843 254.903 13.9993 255.414 14.3118C255.935 14.6243 256.346 15.0409 256.648 15.5618C256.961 16.0826 257.117 16.6607 257.117 17.2961C257.117 17.9316 256.966 18.5149 256.664 19.0461C256.362 19.5774 255.955 19.9993 255.445 20.3118C254.945 20.6243 254.377 20.7805 253.742 20.7805ZM253.883 20.1711C254.258 20.1711 254.586 20.0514 254.867 19.8118C255.148 19.5722 255.367 19.2493 255.523 18.843C255.69 18.4368 255.773 17.9941 255.773 17.5149C255.773 16.9524 255.669 16.442 255.461 15.9836C255.252 15.5149 254.976 15.1451 254.633 14.8743C254.299 14.593 253.935 14.4524 253.539 14.4524C253.174 14.4524 252.846 14.5722 252.554 14.8118C252.273 15.0409 252.054 15.3534 251.898 15.7493C251.742 16.1347 251.664 16.5722 251.664 17.0618C251.664 17.6243 251.763 18.1451 251.961 18.6243C252.169 19.093 252.44 19.468 252.773 19.7493C253.117 20.0305 253.487 20.1711 253.883 20.1711ZM258.195 20.718C258.153 20.6764 258.133 20.5982 258.133 20.4836C258.133 20.3378 258.153 20.2649 258.195 20.2649C258.278 20.2649 258.388 20.2493 258.523 20.218C258.659 20.1868 258.784 20.1451 258.898 20.093C259.023 20.0409 259.091 19.9941 259.101 19.9524C259.195 19.5878 259.242 19.1243 259.242 18.5618L259.258 14.968C259.258 14.8951 259.231 14.8586 259.179 14.8586H258.351C258.32 14.8586 258.304 14.8274 258.304 14.7649C258.304 14.6607 258.33 14.5305 258.383 14.3743C258.445 14.2076 258.497 14.1243 258.539 14.1243H259.179C259.231 14.1243 259.258 14.093 259.258 14.0305V13.8274C259.258 13.2753 259.346 12.7597 259.523 12.2805C259.7 11.8014 259.935 11.3743 260.226 10.9993C260.528 10.6243 260.862 10.3326 261.226 10.1243C261.601 9.91593 261.981 9.81177 262.367 9.81177C262.867 9.81177 263.33 9.92635 263.758 10.1555C264.33 10.4472 264.617 10.7649 264.617 11.1086C264.617 11.3274 264.554 11.5045 264.429 11.6399C264.304 11.7753 264.133 11.843 263.914 11.843C263.612 11.843 263.393 11.7284 263.258 11.4993C263.101 11.2493 262.929 11.0097 262.742 10.7805C262.554 10.5409 262.268 10.4211 261.883 10.4211C261.591 10.4211 261.336 10.5514 261.117 10.8118C260.898 11.0722 260.731 11.4159 260.617 11.843C260.502 12.2701 260.445 12.7389 260.445 13.2493V14.0461C260.445 14.0982 260.471 14.1243 260.523 14.1243H262.258C262.81 14.1243 263.278 14.1086 263.664 14.0774C264.06 14.0357 264.372 13.9784 264.601 13.9055L264.648 13.8899C264.721 13.8586 264.758 13.968 264.758 14.218C264.737 14.4264 264.716 14.6243 264.695 14.8118C264.685 14.9993 264.679 15.1764 264.679 15.343V18.5618C264.679 18.8639 264.69 19.1295 264.711 19.3586C264.731 19.5878 264.763 19.7857 264.804 19.9524C264.825 19.9941 264.898 20.0409 265.023 20.093C265.148 20.1451 265.284 20.1868 265.429 20.218C265.575 20.2493 265.679 20.2649 265.742 20.2649C265.773 20.2649 265.794 20.3274 265.804 20.4524C265.815 20.5774 265.81 20.6659 265.789 20.718L264.117 20.6399L262.414 20.718C262.372 20.6764 262.351 20.5878 262.351 20.4524C262.351 20.3274 262.372 20.2649 262.414 20.2649C262.497 20.2649 262.612 20.2493 262.758 20.218C262.903 20.1868 263.039 20.1451 263.164 20.093C263.289 20.0409 263.356 19.9941 263.367 19.9524C263.409 19.8066 263.435 19.6399 263.445 19.4524C263.466 19.2649 263.476 19.067 263.476 18.8586V15.8274C263.476 15.5045 263.414 15.2597 263.289 15.093C263.185 14.9368 262.804 14.8586 262.148 14.8586H260.539C260.476 14.8586 260.445 14.8899 260.445 14.9524L260.461 18.5618C260.461 18.8639 260.471 19.1295 260.492 19.3586C260.513 19.5878 260.544 19.7857 260.586 19.9524C260.606 19.9941 260.674 20.0409 260.789 20.093C260.903 20.1451 261.028 20.1868 261.164 20.218C261.299 20.2493 261.398 20.2649 261.461 20.2649C261.492 20.2649 261.513 20.3274 261.523 20.4524C261.534 20.5774 261.528 20.6659 261.508 20.718L259.836 20.6399L258.195 20.718ZM266.57 20.718C266.528 20.6764 266.508 20.5878 266.508 20.4524C266.508 20.3274 266.528 20.2649 266.57 20.2649C266.653 20.2649 266.768 20.2493 266.914 20.218C267.06 20.1868 267.195 20.1451 267.32 20.093C267.445 20.0409 267.513 19.9941 267.523 19.9524C267.565 19.8066 267.591 19.6399 267.601 19.4524C267.622 19.2649 267.633 19.067 267.633 18.8586V12.093C267.633 11.7389 267.601 11.4055 267.539 11.093C267.497 10.9264 267.231 10.843 266.742 10.843H266.601C266.539 10.843 266.508 10.7857 266.508 10.6711C266.508 10.5045 266.539 10.4211 266.601 10.4211C267.226 10.3482 267.69 10.2649 267.992 10.1711C268.294 10.0774 268.502 9.99406 268.617 9.92114L268.773 9.82739H268.804C268.846 9.82739 268.888 9.85864 268.929 9.92114C268.971 9.97323 268.997 10.0253 269.008 10.0774C268.893 10.4211 268.836 10.8743 268.836 11.4368V18.5618C268.836 18.8639 268.846 19.1295 268.867 19.3586C268.888 19.5878 268.919 19.7857 268.961 19.9524C268.981 19.9941 269.054 20.0409 269.179 20.093C269.304 20.1451 269.44 20.1868 269.586 20.218C269.731 20.2493 269.836 20.2649 269.898 20.2649C269.929 20.2649 269.95 20.3274 269.961 20.4524C269.971 20.5774 269.966 20.6659 269.945 20.718L268.273 20.6399L266.57 20.718ZM273.929 20.7649C273.356 20.7649 272.83 20.6139 272.351 20.3118C271.872 20.0097 271.487 19.6086 271.195 19.1086C270.914 18.5982 270.773 18.0305 270.773 17.4055C270.773 16.6764 270.909 16.0461 271.179 15.5149C271.45 14.9836 271.82 14.5774 272.289 14.2961C272.758 14.0045 273.284 13.8586 273.867 13.8586C274.346 13.8586 274.768 13.9524 275.133 14.1399C275.497 14.317 275.778 14.5461 275.976 14.8274C276.164 15.1191 276.299 15.4159 276.383 15.718C276.476 16.0097 276.523 16.3014 276.523 16.593C276.523 16.8014 276.492 16.9316 276.429 16.9836C276.367 17.0253 276.247 17.0461 276.07 17.0461H272.133C272.049 17.0461 272.008 17.0722 272.008 17.1243C272.008 17.5618 272.096 17.9836 272.273 18.3899C272.45 18.7857 272.711 19.1139 273.054 19.3743C273.398 19.6347 273.82 19.7649 274.32 19.7649C274.758 19.7649 275.122 19.7024 275.414 19.5774C275.716 19.442 275.935 19.3222 276.07 19.218L276.179 19.1399C276.242 19.1399 276.273 19.2076 276.273 19.343C276.273 19.4159 276.242 19.5097 276.179 19.6243C275.971 19.9159 275.664 20.1816 275.258 20.4211C274.851 20.6503 274.409 20.7649 273.929 20.7649ZM272.133 16.3899H275.179C275.231 16.3899 275.258 16.3378 275.258 16.2336C275.258 16.0045 275.195 15.7545 275.07 15.4836C274.955 15.2024 274.778 14.9576 274.539 14.7493C274.299 14.5409 273.997 14.4368 273.633 14.4368C273.299 14.4368 273.013 14.5514 272.773 14.7805C272.534 14.9993 272.351 15.2545 272.226 15.5461C272.101 15.8274 272.039 16.0722 272.039 16.2805C272.039 16.3534 272.07 16.3899 272.133 16.3899Z" fill="black"/>
</svg>
